<?xml version="1.0" encoding="utf-8"?>
<!-- Generator: Adobe Illustrator 25.4.1, SVG Export Plug-In . SVG Version: 6.00 Build 0)  -->
<svg version="1.1" id="图层_1" xmlns="http://www.w3.org/2000/svg" xmlns:xlink="http://www.w3.org/1999/xlink" x="0px" y="0px"
	 viewBox="0 0 2256.7 466.3" style="enable-background:new 0 0 2256.7 466.3;" xml:space="preserve">
<style type="text/css">
	.st0{fill:#FFFFFF;}
</style>
<g transform="matrix(1.33333 0 0 -1.33333 0 777.2)">
	<g transform="translate(337.6 303.2)">
		<path class="st0" d="M-116.6,116.6c-10.2-10.2-26.8-10.2-37,0s-10.2,26.8,0,37c10.2,10.2,26.8,10.2,37,0
			C-106.4,143.4-106.4,126.9-116.6,116.6 M-102.1,169.3c-17.1,17.1-39.8,26.5-64,26.5s-46.9-9.4-64-26.5c-35.3-35.3-35.3-92.7,0-128
			c17.1-17.1,39.8-26.5,64-26.5s46.9,9.4,64,26.5C-66.8,76.6-66.8,134-102.1,169.3 M171.7,220.3h-35.3c-4.3,0-7.8-3.5-7.8-7.8V-3
			c0-4.3,3.5-7.8,7.8-7.8h35.3c4.3,0,7.8,3.5,7.8,7.8v215.6C179.5,216.9,176,220.3,171.7,220.3 M352.4,150.3
			c-4.2,3.5-16.7,13.9-39.7,16.6c-15.4,1.8-30.1,4-55.3-2.2c-25.3-6.2-37.8-15.4-42.6-19.9c-1.6-1.5-2.5-3.5-2.5-5.6V-2.7
			c0-4.2,3.4-8,7.7-8h33.6c4.2,0,7.7,3.8,7.7,8v87.2c0,10.8,0.2,14.3,0.2,26.4s14.5,15.8,29.9,15.8c12.6,0,26.7-3.8,26.7-15.8
			c0-6.7-0.2-11.7-0.2-16.2V-2.7c0-4.2,3.4-8,7.7-8h34.5c4.2,0,7.7,3.8,7.7,8V99.5C367.7,121.5,363.9,140.8,352.4,150.3 M645.5,32.8
			c-3.4-0.6-7.8-1-13.3-1.1c-7.6-0.1-13.6,0.3-15.4,2.1s-2.8,4.9-2.8,12.1l-0.2,72.3h28.3c4.3,0,7.9,3.5,7.9,7.9l0.1,25.9
			c0,4.3-3.4,7.7-7.7,7.7h-28.2v37.2c0,4.3-3.5,7.8-7.8,7.8h-34.6c-4.3,0-7.8-3.5-7.8-12.1V32.7c0-6.6-1.4-22,10-31.9
			c11.4-10,30.6-11.3,46.6-11.3c12.6-0.1,22.7,1.4,28.8,2.7c3.7,0.8,6.3,4.1,6.2,7.9l-1.2,25.6C654.3,30.2,650.1,33.6,645.5,32.8
			 M489.5,96.5c-21.6,2.6-41.6,6-47.1,9.2c-5.6,3.3-4.9,14.7-1.5,18.8c4.8,5.8,26.7,4.5,39.4,3.2c15.9-1.7,28.7-4.9,36.6-7.4
			c4.7-1.5,9.5,1.7,10,6.5l2.6,24.2c0.4,3.5-1.7,6.9-5.1,8.1c-17.6,6.2-30.6,10-59.1,10c-12.4,0-26.8-1.4-39.7-6
			c-20.7-7.4-26.6-21.9-27.9-34.7c-0.6-6.4-1.1-9.5-1.1-17.9c0.1-13.8,2.9-24.8,10.6-32.1C415,71,432,65.3,457.9,61.8
			c23-3.1,28.5-5.8,32.4-8.6c5.5-4,5-17.8,1.3-21c-6-5.2-20.2-6.4-37.3-5.3s-35.3,6.3-46,9.9c-4.8,1.6-9.9-1.8-10.2-6.8l-1.6-25
			c-0.2-3,1.4-5.8,4.1-7.3c13.7-7.3,43.4-12.8,66.8-12.8c25.8,0,46,5.3,56.9,14.7c12.5,10.8,14.2,24.3,14.2,41.7
			c0,13.2,0.2,29.6-8.4,38.5C521.3,88.4,512.4,93.7,489.5,96.5 M775.2,31.2c-8.3-5.7-20.7-6.7-30.5-6.8s-21.5,2.1-26,6.8
			c-3.8,4-2.4,5.2-2.4,11.1c0,8.7,3.8,15.1,12.5,18.5c8.7,3.5,21.4,3.6,29.3,3.8c14.3,0.4,24.5-1.5,24.5-1.5v-7.8
			C782.6,40.3,783.5,36.9,775.2,31.2 M804.8,157.7c-14.7,7.5-31.4,11.2-50.3,11.2c-26.2,0-51.6-3.4-66.6-10.7
			c-2.7-1.3-4.3-4.2-4.2-7.2l1.4-25c0.3-5.1,5.4-8.4,10.1-6.7c12.3,4.7,33.8,11,54.3,11.2c13.9,0.2,20.9-1.3,25.8-3.9
			c4.9-2.7,6.9-5.7,6.9-12.8c0-5.8-0.1-15.4-0.1-15.4s-24,1.7-35.5,1c-15.9-1-30.7-2.9-47.3-11.3c-13.6-7-24.5-16.8-24.5-38V27.8
			c0-14.8,9-26.6,21.5-32.8c13.6-6.8,28.9-10.2,57.1-10.2c38.6,0,62.7,16.2,70.5,22.4c1.8,1.4,2.8,3.6,2.8,5.9v102.1
			C826.7,136,819.4,150.2,804.8,157.7 M999.3,70.3c0,10.8-5.7,30.1-24.8,36.4c-4.8,1.6-7.4,2.3-9.6,2.3c5.4,2.1,10.7,4.8,17.6,11.5
			c7,6.7,10.2,17.3,10.2,30.6v11c0,19-8.4,35.5-25.1,44.5c-13.2,7.1-31.2,9.4-47.4,9.4c-33.3,0-56.5-9-66.3-15
			c-2.4-1.5-3.8-4.1-3.5-6.9l1.8-23.7c0.4-5.1,5.6-8.2,10.3-6.3c11,4.7,30.1,11.5,48.3,12c8.8,0.2,21.4-0.2,27.8-2.8
			c7.2-2.9,11.7-9,11.8-15.7c0.1-7.2,0.1-6.1,0.1-10.6c0-9.9-3.6-12.3-6.8-15.2c-4.5-4-12.9-5.2-23-6.4c-6.4-0.8-21.9-1.8-35.2-2.2
			c-4-0.1-7.2-3.4-7.2-7.4L878.2,92c0-4.1,3.3-7.4,7.4-7.4c11.6-0.1,27.5-0.3,39.1-1.5c16.1-1.7,29.7-6.1,29.7-19.3V50.1
			c0-19.6-17.1-22.5-42.7-22.5c-16.7,0-35.8,7.2-47,12.3c-4.7,2.1-10-1.1-10.4-6.2l-1.9-25.3c-0.2-2.7,1.1-5.4,3.4-6.8
			c8.3-5.2,29.7-16.7,60-16.7c21.8,0,48.9,4.8,63.2,15.3c5.1,3.8,20.2,17.9,20.2,39.5v15.9C999.3,68.3,999.3,60.8,999.3,70.3
			 M1306.7,149.4v-48.8c0-16.1-0.2-23-0.2-34.5V54.9c0-14.1-0.9-17.3-7.6-23.4c-5.9-5.4-16.5-5.5-21.8-5.5c-8.2,0-15.4,2.2-20.7,6.9
			c-5.7,5.1-6.3,10-6.3,29c0,11.7-0.1,19.4-0.1,39.4c0,14.6,0.2,26.8,0.1,39.7c-0.1,14.9,1.1,23,9,29.3c5.5,4.3,10.4,6,18.6,6
			c7.7,0,17.3-1.8,22.1-6.1C1306.9,163.8,1306.7,156.4,1306.7,149.4 M1354.9,100.6v57c0,18.9-10.5,39-30.1,48.7
			c-12.2,6.1-29.2,9.6-46.9,9.6c-18,0-35.3-2.1-49.9-12.1c-17.4-11.9-24.1-32.7-24.1-52.3V53.4c0-33,11.7-45.7,23.2-53.5
			c13.8-9.3,33.1-15.3,52.3-15.3c21.3,0,47.5,5.7,63.2,25.1c10.4,12.8,12.4,35.1,12.4,55.9C1354.9,87,1354.9,76.6,1354.9,100.6
			 M1128.9,34.5c-5.6-7.4-18.3-9-28.1-9c-10,0-19.5,1.4-26,9s-5.3,16.6-5.3,28.7c0,15,0.1,24.3,0.1,24.3s16.7,7.2,32.3,6.8
			c9.3-0.3,19.6-0.4,26-7.4s6.9-13,6.9-26.1C1134.8,49,1134.6,41.9,1128.9,34.5 M1155.2,125.2c-9.7,6.2-31.9,10.6-47.6,10.7
			c-17.5,0.2-38.4-6.1-38.4-6.1s0,12.2,0.3,23.7c0.5,19.2,28.4,23.8,42.7,23.7c14.5-0.1,30.8-4.1,40.6-6.9c4.5-1.3,9,1.9,9.4,6.5
			l1.7,23.5c0.2,3.2-1.6,6.3-4.7,7.4c-14.2,5.5-31.9,8.2-50.4,8.2c-10.1,0-28.6,1-47.3-6.9c-13.8-5.8-35.6-20.6-35.6-47V48.7
			c0-13,5.7-37.3,20.6-48.5c19.1-14.4,36.6-15.5,54-15.5c19.1,0,32.1,0.4,48.1,8.9c20.4,10.9,28.7,32,29.3,54.5
			c0.4,15,0,21.6-0.8,33.8C1176.4,94,1178,110.8,1155.2,125.2"/>
	</g>
	<g transform="translate(374.7 205.3)">
		<path class="st0" d="M-116.6,116.6c-23.1-23.1-53.9-35.9-86.6-35.9s-63.5,12.7-86.6,35.9c-47.8,47.7-47.8,125.4,0,173.2
			c23.1,23.1,53.9,35.9,86.6,35.9s63.5-12.7,86.6-35.9C-68.8,242.1-68.8,164.4-116.6,116.6 M-50.8,281.2c-0.3,0.6-1.8,3.8-2,4.3
			c-6.4,14.3-4.1,31.7,7.1,43.8c0.3,0.2,1.2,1.2,1.7,1.7c0.3,0.3,0.6,0.6,0.8,1c2.3,3.7,1.8,8.6-1.4,11.8c-0.1,0.1-0.2,0.2-0.4,0.3
			c-0.8,0.6-1.7,1.1-2.6,1.6l-1,0.5c-58.3,30.4-125.1,38.7-188,25l-0.2-0.3c-32.1-6.4-62.7-22-87.6-46.9
			c-54.7-54.7-64.7-137-30.1-201.9c0.3-0.6,1.6-2.8,1.8-3.4c5.6-14.2,2.9-30.8-8.1-42.5c-0.3-0.3-1-1.2-1-1.2
			c-3.8-3.8-3.8-9.8,0-13.6c0.9-0.8,1.8-1.5,2.9-2.1l0.1-0.1c58.7-30.6,126.1-38.8,189.5-24.5c32,6.4,62.6,22,87.4,46.9
			C-28,135.6-17.6,216.7-50.8,281.2"/>
	</g>
</g>
</svg>
