<?xml version="1.0" encoding="utf-8"?>
<!-- Generator: Adobe Illustrator 25.4.1, SVG Export Plug-In . SVG Version: 6.00 Build 0)  -->
<svg version="1.1" id="图层_1" xmlns="http://www.w3.org/2000/svg" xmlns:xlink="http://www.w3.org/1999/xlink" x="0px" y="0px"
	 viewBox="0 0 2171.5 756.4" style="enable-background:new 0 0 2171.5 756.4;" xml:space="preserve">
<style type="text/css">
	.st0{fill:#FFFFFF;}
</style>
<g>
	<path class="st0" d="M770.5,590.1L620.4,439.9c-31.4-31.4-28.7-30.3-73.2-30.3H265.6c-44.5,0-41.8-1.1-73.2,30.3L42.3,590.1
		c34,68.7,86.8,126.3,152.2,166.3l173-173c15.7-15.7,22.7-21.8,31.3-24.5c2.4-0.9,5-1.3,7.6-1.4c2.6,0.1,5.1,0.5,7.6,1.4
		c8.6,2.5,15.5,8.7,31.3,24.5l173,173C683.6,716.4,736.4,658.8,770.5,590.1z"/>
	<path class="st0" d="M214.2,394.9c11.4-12.2,9.8-22.7,20.9-51.4c36.6-94.6,142.9-141.7,237.6-105.1
		c48.3,18.7,86.5,56.8,105.1,105.1c11.1,28.8,9.5,39.2,20.8,51.4c11.3,12.2,22.7,14.7,58.7,14.7h155.5C814.5,185.2,634,1.8,409.6,0
		S1.8,178.8,0,403.2c0,2.1,0,4.3,0,6.4h155.4C191.5,409.6,203.1,406.8,214.2,394.9L214.2,394.9z M1946,186.7
		c-124.3,0-225.4,99.9-225.4,222.7s101.1,222.7,225.4,222.7s225.5-99.9,225.5-222.7S2070.4,186.7,1946,186.7z M1946.5,526.1
		c-64.4,0-116.7-52.2-116.7-116.7c0-64.4,52.2-116.7,116.7-116.7c64.4,0,116.7,52.2,116.7,116.7c0,0,0,0,0,0.1
		C2063.1,473.8,2010.9,526,1946.5,526.1z M1550.9,233.3v386.4h105.5V197.6h-69.8c-5.1-0.3-10.3,0.2-15.3,1.5
		c-9.1,2.8-16.1,9.9-18.9,18.9C1551.1,223,1550.6,228.2,1550.9,233.3L1550.9,233.3z M1035.4,197.6v422.2h70
		c5.1,0.3,10.3-0.2,15.3-1.5c9.1-2.8,16.2-9.9,18.9-18.9c1.3-5,1.8-10.1,1.5-15.3V360.4l209,238.3c6.5,7.4,11.9,13.2,20.4,17
		s16.4,4.1,26.3,4.1h77V197.6h-70c-5.1-0.3-10.3,0.2-15.3,1.5c-9.1,2.8-16.2,9.9-18.9,18.9c-1.3,5-1.8,10.1-1.5,15.3V457
		l-208.9-238.3c-6.5-7.4-12-13.2-20.4-17c-8.5-3.8-16.4-4.1-26.3-4.1L1035.4,197.6z"/>
</g>
</svg>
