<?xml version="1.0" encoding="utf-8"?>
<!-- Generator: Adobe Illustrator 25.4.1, SVG Export Plug-In . SVG Version: 6.00 Build 0)  -->
<svg version="1.1" id="Layer_1" xmlns="http://www.w3.org/2000/svg" xmlns:xlink="http://www.w3.org/1999/xlink" x="0px" y="0px"
	 viewBox="0 0 253.7 43.6" style="enable-background:new 0 0 253.7 43.6;" xml:space="preserve">
<style type="text/css">
	.st0{fill:#FFFFFF;}
</style>
<g id="_图层_2">
	<g id="_图层_1-2">
		<path class="st0" d="M71.4,16.3c0-1.2,1.4-1.6,2.8-1.6h10.6v-3.5H72.1c-4.2,0-12.2,0.9-12.2,5.2c0,6.1,14.8,7.5,14.8,10.4
			s-1.4,2.1-4.7,2.1s-6.8-0.5-10.1-1.2V31c2.6,0.7,6.4,1.2,11.5,1.2c8.7,0,14.6-2.1,14.6-5.6c0-5.4-14.6-7.1-14.6-10.1 M150,19.8
			h-9.6v3.5h2.6c0.7,0,1.2,0.5,1.2,1.2l0,0v2.4l0,0c0,1.2-1.2,2.1-4.5,2.1h-2.4c-2.4,0-3.5-1.6-3.5-2.8V17c0-1.4,0.9-2.6,3.1-2.6
			h12.7v-3.5h-17.2c-3.5,0-7.8,2.1-7.8,6.8v7.1c0,7.1,8,7.3,13.2,7.3h0.7c8.7,0,14.4-2.1,14.4-5.6v-4.2c0.2-0.9-1.2-2.4-2.8-2.4l0,0
			 M186.5,24.3c0,0.2-0.2,0.2-0.5,0.2s-0.5-0.2-0.5-0.2l-3.3-10.1c-0.7-1.9-2.4-3.1-4.2-2.8c-1.9,0-3.8,1.2-4.5,2.8l-3.1,10.1
			c0,0.2-0.2,0.2-0.5,0.2s-0.5-0.2-0.5-0.2l-4-13.2h-7.8l5.9,18.6c0.5,1.6,2.8,2.8,4.9,2.8s4.5-1.2,4.9-2.6l2.4-7.8
			c0-0.2,0.2-0.5,0.5-0.5s0.5,0.2,0.5,0.5l2.4,7.5c0.5,1.6,2.8,2.8,4.9,2.8s4.5-1.2,4.9-2.6l5.9-18.6h-4.7c0.5,0-3.8,12.9-3.8,12.9
			 M217.5,12.5c-3.8-2.1-8.5-2.1-12,0c-1.9,1.2-3.1,3.3-3.5,5.2l-4.5,14.4h5.6l1.4-4.5c0-0.2,0.2-0.5,0.5-0.5h10.4
			c0.2,0,0.5,0.2,0.5,0.5l1.4,4.5h8.7l-4.7-14.4C220.6,15.8,219.4,13.7,217.5,12.5 M213.8,24h-7.5c-0.2,0-0.5-0.2-0.5-0.5v-0.2
			l1.9-6.1c0.5-0.9,1.2-1.6,2.4-1.4c1.2,0,2.1,0.7,2.6,1.6l1.9,5.9C214.4,23.5,214.1,23.8,213.8,24L213.8,24 M247.6,11.3l-5.6,8
			c-0.5,0.5-1.2,0.7-1.6,0.2c-0.2,0-0.2-0.2-0.2-0.2l-5.6-8h-8.7l8.5,12l0,0c0.5,0.5,0.9,1.2,0.9,2.1v5.2c0,0.7,0.5,1.6,1.4,1.6
			c0.9,0.2,2.1,0.5,3.1,0.5l0,0c0.9,0,2.1,0,3.1-0.5c0.7-0.2,1.4-0.9,1.4-1.6v-5.2c0-0.7,0.5-1.6,0.9-2.1l8.5-12h-5.9H247.6z
			 M102.2,26.4v-1.9c0-0.7,0.5-1.2,1.2-1.2h12v-3.5h-12c-0.7,0-1.2-0.5-1.2-1.2l0,0v-1.2c0-1.4,0.9-2.6,3.1-2.6h12.2v-3.5h-16.7
			c-3.5,0-7.8,2.1-7.8,6.8v7.1c0,7.1,8,7.3,13.2,7.3s10.1-0.5,12.7-1.2V28c-3.3,0.9-9.2,0.9-12.9,0.9
			C103.2,29.1,102.2,27.5,102.2,26.4"/>
		<path class="st0" d="M21.7,0C9.7,0,0,9.6,0,21.7s9.6,21.9,21.9,21.9S43.8,34,43.8,21.7C43.6,9.7,33.9,0,21.7,0L21.7,0 M7.6,20.5
			L7.6,20.5v-0.2c0-0.7,0.5-1.2,1.2-1.2h14.1c0.7,0,1.2,0.5,1.2,1.2s-0.5,1.2-1.2,1.2H8.8c-0.5-0.2-0.9-0.5-1.2-0.9 M28.8,22.2
			l-0.2,0.7l0,0v0.5l-0.2,0.7v0.7l-0.2,0.5l-3.1,9.6c0,0.5-0.2,0.7-0.5,0.9c0,0,0,0.2-0.2,0.2l-0.2,0.2c-1.4,1.9-4,2.4-6.1,1.4
			C16.7,36.9,16,36,16,35v-0.7l0,0v-0.2l0,0v-0.9l0,0l0.2-0.9l1.2-3.5c0.2-0.5,0.2-0.9,0.2-1.6s0-0.9-0.5-1.2
			c-0.2-0.5-0.7-0.7-0.9-0.7h-3.1c-0.5-0.2-0.9-0.9-0.5-1.4c0.2-0.5,0.5-0.7,0.9-0.7h6.8c0.5,0,0.7,0,0.9,0.2c0,0,0.2,0,0.2,0.2
			c0.5,0.5,0.5,0.9,0,1.6v0.2L20.5,27l-2.6,5.4c-0.5,1.2-0.7,2.4,0,3.3c0.5-0.2,0.7,0,0.9,0c0.2,0.2,0.7,0.2,0.9,0.2
			c0.5,0,0.9,0,1.2-0.2c0,0,0.2,0,0.2-0.2c0.5-0.5,0.9-0.9,1.4-1.6c0-0.2,0.2-0.5,0.2-0.5l0.2-0.9v-0.2l0.9-2.6v-0.2l0.2-0.9v-0.5
			l0.2-0.5l1.9-6.1c0-0.1,0.1-0.3,0.2-0.5l0,0v-0.2c0.2-0.7,0-1.4-0.2-2.1c0-0.2-0.2-0.2-0.2-0.2h-0.2c0,0-0.2,0-0.2-0.2
			c-0.5-0.2-0.9-0.2-1.4-0.2H11.6c-0.2,0-0.5,0-0.7-0.2l0,0c-0.2-0.2-0.2-0.5-0.2-0.7c0-0.5,0.2-0.9,0.7-1.2h13.2
			c0.7,0,2.4,0.2,3.3,1.4l0.2-0.2c0,0,0,0.2,0.2,0.2c0,0.2,0.2,0.2,0.2,0.5c0.2,0.5,0.5,1.2,0.5,1.9s-0.2,1.6-0.5,2.6 M31.6,10.4
			c0,2.1-1.6,3.8-3.8,3.8S24,12.6,24,10.4s1.6-3.8,3.8-3.8l0,0C29.7,6.6,31.6,8.2,31.6,10.4"/>
	</g>
</g>
</svg>
