<?xml version="1.0" encoding="utf-8"?>
<!-- Generator: Adobe Illustrator 25.4.1, SVG Export Plug-In . SVG Version: 6.00 Build 0)  -->
<svg version="1.1"
	 id="图层_1" xmlns:cc="http://creativecommons.org/ns#" xmlns:dc="http://purl.org/dc/elements/1.1/" xmlns:rdf="http://www.w3.org/1999/02/22-rdf-syntax-ns#"
	 xmlns="http://www.w3.org/2000/svg" xmlns:xlink="http://www.w3.org/1999/xlink" x="0px" y="0px" viewBox="0 0 278.7 360.4"
	 style="enable-background:new 0 0 278.7 360.4;" xml:space="preserve">
<style type="text/css">
	.st0{fill:#FFFFFF;}
</style>
<g>
	<g>
		<path class="st0" d="M0,324.2c0.8,3.2,3.6,6.4,7.3,7.2h11.4l0.6,0.2v28.7h7.1v-28.7l0.6-0.2h11.4c3.8-1,6.5-4,7.3-7.2v-0.1
			L0,324.2L0,324.2"/>
		<path class="st0" d="M70.3,360.4h27c3.8-0.7,6.6-4.1,7.3-7.3H62.9C63.7,356.3,66.5,359.7,70.3,360.4"/>
		<path class="st0" d="M70.3,345.7h27c3.8-0.7,6.6-4.1,7.3-7.3H62.9C63.7,341.6,66.5,344.9,70.3,345.7"/>
		<path class="st0" d="M70.3,331.4h27c3.8-0.7,6.6-4.1,7.3-7.3H62.9C63.7,327.3,66.5,330.6,70.3,331.4"/>
		<path class="st0" d="M131.9,331.3h25c3.8-1.1,6.9-4,7.7-7.1h-39.6v21.4h32.4v7.5l-25.4,0c-4,1.1-7.4,3.8-9.1,7.3l2.1,0h39.4v-21.9
			h-32.4L131.9,331.3"/>
		<path class="st0" d="M216.8,360.4c3.5-1.5,5.4-4.1,6.2-7.1h-31.5l0-29.1l-7.1,0v36.2L216.8,360.4"/>
		<path class="st0" d="M244.3,331.4h27c3.8-0.7,6.5-4.1,7.3-7.3H237C237.8,327.3,240.6,330.6,244.3,331.4"/>
		<path class="st0" d="M238.1,338.5v21.9h7v-14.6h25.6v14.6h7v-21.9L238.1,338.5"/>
	</g>
	<g>
		<path class="st0" d="M139.3,252.5L174.8,53c33.8,0,44.5,3.7,46,18.8c0,0,22.7-8.5,34.1-25.6c-44.6-20.7-89.5-21.6-89.5-21.6
			l-26.2,31.9l0.1,0l-26.2-31.9c0,0-44.9,0.9-89.5,21.6c11.4,17.2,34.1,25.6,34.1,25.6C59.3,56.7,70,53,103.6,53L139.3,252.5"/>
		<path class="st0" d="M139.3,15.4c36.1-0.3,77.4,5.6,119.7,24c5.7-10.2,7.1-14.7,7.1-14.7C219.9,6.4,176.6,0.2,139.3,0
			C102.1,0.2,58.8,6.4,12.5,24.7c0,0,2.1,5.5,7.1,14.7C61.9,20.9,103.2,15.1,139.3,15.4L139.3,15.4"/>
	</g>
</g>
</svg>
